<svg width="131" height="138" viewBox="0 0 131 138" fill="none" xmlns="http://www.w3.org/2000/svg">
<rect width="131" height="138" rx="20" fill="url(#paint0_linear_40_206)"/>
<path d="M43.1688 47C48.668 47 53.2323 49.1429 56.8617 53.4288C60.5461 57.6591 62.3884 62.8355 62.3884 68.9583V83.6528C62.3884 84.933 62.3334 85.907 62.2234 86.575C62.1684 87.1872 61.9484 87.883 61.5635 88.6622C60.7936 90.1651 58.6489 90.9165 55.1295 90.9165C51.2251 90.9165 48.9704 89.8868 48.3655 87.8273C48.0356 86.8811 47.8706 85.4617 47.8706 83.5693V68.8748C47.8706 66.5927 47.2107 64.8115 45.8909 63.5313C44.6261 62.2511 42.8938 61.611 40.6942 61.611C38.5495 61.611 36.7898 62.2789 35.415 63.6148C34.0952 64.9507 33.4353 66.704 33.4353 68.8748V83.6528C33.4353 84.933 33.3803 85.907 33.2703 86.575C33.2153 87.1872 32.9679 87.883 32.5279 88.6622C31.813 90.1651 29.6959 90.9165 26.1764 90.9165C22.7119 90.9165 20.5948 90.1651 19.8249 88.6622C19.4399 87.8273 19.1925 87.1037 19.0825 86.4915C19.0275 85.8235 19 84.8495 19 83.5693V54.0133C19 52.7887 19.0275 51.8703 19.0825 51.2581C19.1925 50.5901 19.4674 49.8665 19.9074 49.0873C20.6772 47.6958 22.7944 47 26.2589 47C29.6134 47 31.6756 47.6401 32.4454 48.9203C32.9954 49.8665 33.2703 51.0076 33.2703 52.3435C33.4903 51.9538 33.9852 51.3972 34.7551 50.6736C35.525 49.95 36.2674 49.3656 36.9822 48.9203C38.852 47.6401 40.9141 47 43.1688 47Z" fill="white"/>
<path d="M90.7183 76.3055H104.824C107.023 76.3055 108.591 76.5838 109.525 77.1404C110.515 77.697 111.175 78.5041 111.505 79.5617C111.835 80.6192 112 82.0108 112 83.7362C112 85.4617 111.835 86.8533 111.505 87.9108C111.175 88.9684 110.598 89.7198 109.773 90.1651C108.948 90.5547 108.206 90.8052 107.546 90.9165C106.941 90.9722 106.006 91 104.741 91H74.9632C73.0385 91 71.3612 90.2764 69.9314 88.8292C68.5017 87.382 67.7868 85.6565 67.7868 83.6528C67.7868 81.649 68.5017 79.9513 69.9314 78.5598C71.3612 77.1126 73.5609 75.0531 76.5304 72.3814C79.5 69.7097 82.1946 67.3163 84.6142 65.2011C87.0338 63.0304 88.3536 61.8336 88.5736 61.611H76.9429C73.8083 61.611 71.8286 61.0822 71.0038 60.0247C70.0689 58.8001 69.6015 57.186 69.6015 55.1822C69.6015 53.1784 69.739 51.7034 70.0139 50.7571C70.2889 49.7552 70.6188 49.0316 71.0038 48.5863C71.3887 48.0854 71.9386 47.6958 72.6535 47.4175C73.5884 47.1392 75.0182 47 76.9429 47H103.751C105.676 47 107.353 47.6958 108.783 49.0873C110.213 50.4788 110.928 52.2321 110.928 54.3472C110.928 56.4067 110.103 58.2435 108.453 59.8577C106.803 61.4719 100.892 66.9545 90.7183 76.3055Z" fill="white"/>
<defs>
<linearGradient id="paint0_linear_40_206" x1="65.5" y1="0" x2="65.5" y2="138" gradientUnits="userSpaceOnUse">
<stop stop-color="#8C17FF"/>
<stop offset="1" stop-color="#8C17FF"/>
</linearGradient>
</defs>
</svg>
